<svg xmlns="http://www.w3.org/2000/svg" width="288" height="288" viewBox="0 0 288 288" fill="none" stroke="currentColor" stroke-width="10" stroke-linecap="round" stroke-linejoin="round" role="img" aria-labelledby="title desc">
  <title id="title">Yoga Icon</title>
  <desc id="desc">A simplified figure in a lotus yoga pose</desc>

  <!-- Head -->
  <circle cx="144" cy="68" r="24"></circle>

  <!-- Arms & torso (hands to knees) -->
  <path d="M100 134
           C118 118,170 118,188 134
           M144 92
           L144 152"></path>

  <!-- Thighs (cross-legged base) -->
  <path d="M70 184
           C100 166,120 160,144 160
           C168 160,188 166,218 184"></path>

  <!-- Shins/ankles crossing -->
  <path d="M84 206
           C112 192,128 190,144 190
           C160 190,176 192,204 206"></path>

  <!-- Feet loops (lotus suggestion) -->
  <path d="M68 206
           C76 214,92 214,100 206
           M188 206
           C196 214,212 214,220 206"></path>

  <!-- Ground / mat -->
  <path d="M48 232 H240"></path>
</svg>
